<?xml version="1.0" standalone="no"?>
<!DOCTYPE svg PUBLIC "-//W3C//DTD SVG 20010904//EN"
 "http://www.w3.org/TR/2001/REC-SVG-20010904/DTD/svg10.dtd">
<svg version="1.0" xmlns="http://www.w3.org/2000/svg"
 width="1415.000000pt" height="1415.000000pt" viewBox="0 0 1415.000000 1415.000000"
 preserveAspectRatio="xMidYMid meet">
<metadata>
Created by potrace 1.14, written by Peter Selinger 2001-2017
</metadata>
<g transform="translate(0.000000,1415.000000) scale(0.100000,-0.100000)"
fill="#000000" stroke="none">
<path d="M6945 13849 c-27 -5 -56 -12 -63 -14 -7 -2 -16 -5 -20 -6 -30 -6
-116 -47 -171 -83 -51 -33 -811 -787 -3137 -3113 -1688 -1688 -3088 -3091
-3110 -3119 -149 -178 -192 -440 -112 -669 22 -61 37 -93 83 -166 40 -62 6199
-6217 6265 -6260 80 -52 136 -76 230 -100 110 -28 269 -22 376 13 171 57 -65
-171 3319 3213 2645 2644 3116 3120 3148 3175 20 36 37 68 37 73 0 4 6 20 15
36 13 27 25 70 40 146 6 34 7 157 1 195 -16 108 -54 209 -112 296 -37 56
-6141 6170 -6235 6246 -113 91 -244 138 -399 143 -58 2 -127 0 -155 -6z"/>
</g>
</svg>
